<svg xmlns="http://www.w3.org/2000/svg" width="100%" height="100%" preserveAspectRatio="xMidYMid meet" style="display:block" viewBox="-300 -300 2646 2646"><rect x="-300" y="-300" width="2646" height="2646" fill="#1c1926"/><path fill="#9764ef" d="M1448.66 248.444c27.03-1.191 55.83.279 83.04-.19 23-.396 51.75-1.319 73.35 5.8a114.4 114.4 0 0 1 37.39 20.973c12.77 10.855 24.45 24.198 35.8 36.639l45.25 50.039 49.38 55.232c11.19 12.457 24.84 26.963 35.09 39.991a166.7 166.7 0 0 1 17.78 27.465c19.75 38.988 16.25 76.67 16.26 118.661l.02 103.868-.02 322.058v398.39l-.01 132.31c-.01 23.74-.04 47.43-.25 71.2-.66 72.39-58.85 137.46-131.51 143.35-14.85 1.21-30.53.57-45.54.56l-83.41-.03-102.57-.02c-17.34 0-42.33.66-59.28-.6-11.27-.77-22.4-3.02-33.09-6.69-40.24-14.16-71.68-47.5-85.34-87.71-9.67-28.48-7.04-67.27-7.01-97.93l-.01-75.82-.03-194.83c.05-25.03 1.53-52.89-1.36-77.77-.61-5.19-4.06-12.14-6.43-17 17.08-17.93 35.7-37.48 49.9-57.71 15.59-22.22 33.02-41.74 51.51-61.54 1.78 41.73.3 94.15.31 136.59l.01 261.65-.08 93.23c-.01 15.86-.46 33.54.81 49.22.78 9.59 7.51 22.92 14.14 29.88 9.98 10.47 23.39 14.7 37.68 14.64 59.18-.25 118.41-.18 177.59-.18l48.82.14c23.04.22 45.22 3.19 63.37-14.04 20.68-19.65 17.35-43.61 17.32-69.36l-.07-59.73.08-204.93-.26-722.096-80.86-.049c-21.61.012-50.47 1.514-70.73-3.75-18.16-4.602-34.75-14-48.02-27.211-39.73-39.473-33.74-89.234-33.7-140.55l.09-92.388c-76.1-1.908-76.33 3.078-125.78 57.826l-62.64 69.347-238.09 263.144 150.25 167.076 43.71 48.303c9.32 10.328 22.57 24.209 29.65 35.561a149.3 149.3 0 0 1 22.49 70.507c2.47 40.99-10.9 75.69-37.75 106.11a14905 14905 0 0 1-119.07 132.15c-20.08 22.13-49.33 57.91-72.27 74.66-49.01 35.79-129.476 31.42-174.416-9.15-10.162-9.17-19.879-20.86-29.117-31.35a3723 3723 0 0 0-37.724-42.4l-80.754-90.37c-11.684-13.09-23.48-26.15-34.917-39.47-23.95-27.9-35.253-67.23-32.655-103.81 3.709-52.24 34.854-82.718 67.776-118.91 58.963-65.302 121.847-133.072 179.209-199.332A12907 12907 0 0 0 848.84 612.292l-184.851-.004c-37.625.003-66.212-5.041-94.103-33.266a115.74 115.74 0 0 1-29.437-52.741c-5.16-20.706-3.701-55.924-3.706-78.434l.083-98.441c-41.285.723-83.965-.885-125.381-.316-15.542.214-46.202-1.155-60.555 1.763a64.05 64.05 0 0 0-29.865 15.295c-14.628 13.427-21.391 33.314-21.664 52.693-.408 28.893-.226 58.053-.222 86.946l-.07 162.084-.077 499.929-.007 315.21-.047 100.52c-.004 16.93-.28 34.84.457 51.66.427 9.75 8.318 24.59 15.197 31.62 9.524 9.74 22.756 15.4 36.498 15.45 57.655.19 115.451-.08 173.103 0l57.204.15c22.181.05 44.879 2.84 62.163-14.39a50.62 50.62 0 0 0 14.508-29.71c1.644-12.92.867-41.4.852-55.15l-.112-104.03.194-384.74c11.423 14.28 25.68 27.88 36.75 42.46 21.124 27.82 43.502 53.14 66.59 79.32-11.374 19.42-8.359 39.06-8.291 60.92l.167 68.09-.194 210.3c-.149 28.68.834 58.71-.153 87.16-2.016 58.11-49.422 117.31-106.904 128.96-21.103 4.27-42.823 2.89-64.12 2.9l-78.545.08-106.801.15c-17.129.04-34.276.34-51.458.09-40.873-.58-76.141-19.31-103.436-48.93-39.643-43.04-37.353-83.59-37.424-137.5l-.084-101.44-.088-332.63-.12-505.244.086-160.42c.018-25.315-.937-60.093.411-84.644a169.52 169.52 0 0 1 57.149-117.029 147.45 147.45 0 0 1 68.516-34.412c18.625-3.831 41.364-2.667 60.718-2.614l72.318.07 93.618-.06c45.488-.023 81.727-3.891 118.792 28.131 16.687 14.416 29.963 30.146 44.755 46.296l71.215 78.197A17639 17639 0 0 1 1025.2 660.799a30553 30553 0 0 1 235.93-260.687l67.65-73.886c36.12-39.37 61.92-73.833 119.88-77.782M1024.85 1295.2c28.96-2.12 35.91-14.51 53.83-33.99 15.14-16.44 30.18-32.97 45.14-49.57l61.28-67.54c12.91-14.02 26.01-27.88 38.77-42.05 9.93-11.02 14.55-22.55 13.21-37.57a50.16 50.16 0 0 0-8.92-24.62c-5.5-7.74-15.57-18.09-22.23-25.3a3038 3038 0 0 1-39.2-42.766 13070 13070 0 0 0-95.32-106.445c-15.19-16.972-31.17-35.874-46.56-52.34L885.214 968.597c-13.17 14.503-26.426 28.867-39.497 43.563-15.966 17.95-36.736 33.24-34.785 60.14 1.44 19.86 18.75 34.54 31.677 48.58a2202 2202 0 0 1 34.332 37.87l72.827 81.17c9.537 10.6 29.868 34.25 39.501 42.43a53.7 53.7 0 0 0 35.581 12.85M772.56 526.541a8547 8547 0 0 0-99.176-108.021c-9.63-10.377-49.333-56.053-58.972-59.362q-.384 38.611.068 77.223c.118 25.09-3.532 59.184 15.754 78.26a38.44 38.44 0 0 0 18.038 9.993c10.945 2.631 32.041 1.655 43.908 1.822 26.471.372 53.977-.79 80.38.085m966.18-.439-109.63-122.497c-4.22-4.654-35.16-38.859-38.97-41.179l-.11 72.277c-.15 41.262-6.15 92.961 53.21 91.682 31.35-.675 63.94.411 95.5-.283"/><path fill="#9764ef" d="M364.397 377.343c15.998-.609 35.048-.129 51.231-.135l93.927.162-.284 79.726c-.161 55.209-1.203 98.961 41.651 142.042a141.1 141.1 0 0 0 63.763 36.878c26.33 6.757 71.368 4.81 100.128 4.798l122.64.137c21.145 22.101 41.004 46.631 62.06 68.952 8.334 8.835 18.009 19.171 25.143 28.803L748.304 934.305c-13.832 15.837-27.501 29.822-38.227 48.144-17.564 30.001-24.42 60.761-24.076 95.061L450.255 828.927c-40.124-42.292-81.572-87.29-123.076-128.131l-.134-191.661-.003-59.688c.006-32.068-4.72-67.004 37.355-72.104m1112.303.174 10.28.351c.23 10.937.02 22.105.07 33.097.37 80.094-13.49 162.912 67.6 210.876 34.65 20.503 62.29 19.052 100.15 18.997 21.76-.153 43.52-.12 65.29.099.79 17.86.35 42.352.01 60.317-41.96 41.662-86.15 90.777-127.12 134.15L1366.89 1074.1c-1.75 1.92-1.33 1.51-3.41 3.03-2.34-2.85-1.9-23.42-2.54-29.17-7.13-64.026-46.68-100.054-87.85-145.271-49.19-54.03-98.07-109.879-147.95-163.854 10.34-13.112 25.99-29.453 37.41-42.029l66.4-73.088a20334 20334 0 0 0 196.2-217.124c17.43-19.287 24.21-27.681 51.55-29.077"/></svg>
